<?xml version="1.0" encoding="UTF-8" standalone="no"?>
<svg
   xmlns:dc="http://purl.org/dc/elements/1.1/"
   xmlns:cc="http://creativecommons.org/ns#"
   xmlns:rdf="http://www.w3.org/1999/02/22-rdf-syntax-ns#"
   xmlns:svg="http://www.w3.org/2000/svg"
   xmlns="http://www.w3.org/2000/svg"
   xmlns:sodipodi="http://sodipodi.sourceforge.net/DTD/sodipodi-0.dtd"
   xmlns:inkscape="http://www.inkscape.org/namespaces/inkscape"
   aria-hidden="true"
   focusable="false"
   data-prefix="fad"
   data-icon="eye-dropper"
   role="img"
   viewBox="0 0 512 512"
   class="svg-inline--fa fa-eye-dropper fa-w-16 fa-9x"
   version="1.1"
   id="svg8"
   sodipodi:docname="color_picker.svg"
   inkscape:version="0.92.5 (2060ec1f9f, 2020-04-08)">
  <metadata
     id="metadata14">
    <rdf:RDF>
      <cc:Work
         rdf:about="">
        <dc:format>image/svg+xml</dc:format>
        <dc:type
           rdf:resource="http://purl.org/dc/dcmitype/StillImage" />
      </cc:Work>
    </rdf:RDF>
  </metadata>
  <defs
     id="defs12" />
  <sodipodi:namedview
     pagecolor="#ffffff"
     bordercolor="#666666"
     borderopacity="1"
     objecttolerance="10"
     gridtolerance="10"
     guidetolerance="10"
     inkscape:pageopacity="0"
     inkscape:pageshadow="2"
     inkscape:window-width="2560"
     inkscape:window-height="1389"
     id="namedview10"
     showgrid="false"
     inkscape:zoom="0.4609375"
     inkscape:cx="260.33898"
     inkscape:cy="256"
     inkscape:window-x="0"
     inkscape:window-y="0"
     inkscape:window-maximized="1"
     inkscape:current-layer="g6" />
  <g
     class="fa-group"
     id="g6">
    <path
       fill="currentColor"
       d="M32 512L0 480l32-56v-45.5c0-17 6.7-33.3 18.8-45.3l126.6-126.6 128 128-126.7 126.7c-12 12-28.3 18.7-45.2 18.7H88l-56 32z"
       class="fa-secondary"
       id="path2" />
    <path
       fill="currentColor"
       d="M483.9 163.9L406.8 241l13.1 13.1c9.4 9.4 9.4 24.6 0 33.9l-41 41c-9.4 9.3-24.5 9.3-33.9 0L183 167c-9.4-9.4-9.4-24.6 0-33.9l41-41c9.4-9.4 24.6-9.4 33.9 0l13.1 13.2 77.1-77.1c37.5-37.5 98.3-37.5 135.8 0s37.5 98.2 0 135.7z"
       class="fa-primary"
       id="path4"
       style="fill:#4d4d4d" />
  </g>
</svg>
