<?xml version="1.0" encoding="UTF-8" standalone="no"?>
<svg
   xmlns:dc="http://purl.org/dc/elements/1.1/"
   xmlns:cc="http://creativecommons.org/ns#"
   xmlns:rdf="http://www.w3.org/1999/02/22-rdf-syntax-ns#"
   xmlns:svg="http://www.w3.org/2000/svg"
   xmlns="http://www.w3.org/2000/svg"
   xmlns:sodipodi="http://sodipodi.sourceforge.net/DTD/sodipodi-0.dtd"
   xmlns:inkscape="http://www.inkscape.org/namespaces/inkscape"
   aria-hidden="true"
   focusable="false"
   data-prefix="fad"
   data-icon="eraser"
   role="img"
   viewBox="0 0 512 512"
   class="svg-inline--fa fa-eraser fa-w-16 fa-9x"
   version="1.1"
   id="svg8"
   sodipodi:docname="eraser.svg"
   inkscape:version="0.92.5 (2060ec1f9f, 2020-04-08)">
  <metadata
     id="metadata14">
    <rdf:RDF>
      <cc:Work
         rdf:about="">
        <dc:format>image/svg+xml</dc:format>
        <dc:type
           rdf:resource="http://purl.org/dc/dcmitype/StillImage" />
      </cc:Work>
    </rdf:RDF>
  </metadata>
  <defs
     id="defs12" />
  <sodipodi:namedview
     pagecolor="#ffffff"
     bordercolor="#666666"
     borderopacity="1"
     objecttolerance="10"
     gridtolerance="10"
     guidetolerance="10"
     inkscape:pageopacity="0"
     inkscape:pageshadow="2"
     inkscape:window-width="640"
     inkscape:window-height="480"
     id="namedview10"
     showgrid="false"
     inkscape:zoom="0.4609375"
     inkscape:cx="256"
     inkscape:cy="256"
     inkscape:window-x="975"
     inkscape:window-y="435"
     inkscape:window-maximized="0"
     inkscape:current-layer="g6" />
  <g
     class="fa-group"
     id="g6">
    <path
       d="M512 428v40a12 12 0 0 1-12 12H144a48 48 0 0 1-33.94-14.06l-96-96a48 48 0 0 1 0-67.88l136-136 227.88 227.88L355.88 416H500a12 12 0 0 1 12 12z"
       class="fa-secondary"
       id="path2"
       style="fill:#e6e6e6"
       fill="currentColor" />
    <path
       fill="currentColor"
       d="M377.94 393.94l120-120a48 48 0 0 0 0-67.88l-160-160a48 48 0 0 0-67.88 0l-120 120 45.25 45.25z"
       class="fa-primary"
       id="path4"
       style="fill:#ff0000" />
  </g>
</svg>
