<?xml version="1.0" encoding="UTF-8" standalone="no"?>
<svg
   xmlns:dc="http://purl.org/dc/elements/1.1/"
   xmlns:cc="http://creativecommons.org/ns#"
   xmlns:rdf="http://www.w3.org/1999/02/22-rdf-syntax-ns#"
   xmlns:svg="http://www.w3.org/2000/svg"
   xmlns="http://www.w3.org/2000/svg"
   xmlns:sodipodi="http://sodipodi.sourceforge.net/DTD/sodipodi-0.dtd"
   xmlns:inkscape="http://www.inkscape.org/namespaces/inkscape"
   aria-hidden="true"
   focusable="false"
   data-prefix="fad"
   data-icon="fill"
   role="img"
   viewBox="0 0 512 512"
   class="svg-inline--fa fa-fill fa-w-16 fa-9x"
   version="1.1"
   id="svg8"
   sodipodi:docname="fill.svg"
   inkscape:version="0.92.5 (2060ec1f9f, 2020-04-08)">
  <metadata
     id="metadata14">
    <rdf:RDF>
      <cc:Work
         rdf:about="">
        <dc:format>image/svg+xml</dc:format>
        <dc:type
           rdf:resource="http://purl.org/dc/dcmitype/StillImage" />
      </cc:Work>
    </rdf:RDF>
  </metadata>
  <defs
     id="defs12" />
  <sodipodi:namedview
     pagecolor="#ffffff"
     bordercolor="#666666"
     borderopacity="1"
     objecttolerance="10"
     gridtolerance="10"
     guidetolerance="10"
     inkscape:pageopacity="0"
     inkscape:pageshadow="2"
     inkscape:window-width="2560"
     inkscape:window-height="1389"
     id="namedview10"
     showgrid="false"
     inkscape:zoom="0.4609375"
     inkscape:cx="-288.54238"
     inkscape:cy="247.32203"
     inkscape:window-x="0"
     inkscape:window-y="0"
     inkscape:window-maximized="1"
     inkscape:current-layer="g6" />
  <g
     class="fa-group"
     id="g6">
    <path
       fill="currentColor"
       d="M386.39 288L235.78 438.61a32 32 0 0 1-45.22 0L73.37 321.4A31.86 31.86 0 0 1 64 298.78 32.59 32.59 0 0 1 65.87 288z"
       class="fa-secondary"
       id="path2"
       style="fill:#4658c6;fill-opacity:1" />
    <path
       fill="currentColor"
       d="M502.63 217L294.94 9.34a32 32 0 0 0-45.25 0l-81.58 81.58L81.93 4.73a16 16 0 0 0-22.62 0L36.69 27.35a16 16 0 0 0 0 22.62l86.19 86.18-94.76 94.76a96 96 0 0 0 0 135.75l117.19 117.19a96 96 0 0 0 135.74 0l221.57-221.57a32 32 0 0 0 .01-45.28zM235.78 438.61a32 32 0 0 1-45.22 0L73.37 321.4a32 32 0 0 1 0-45.24l94.75-94.74 58.6 58.58A32 32 0 0 0 272 194.77l-58.6-58.6 58.92-58.93 162.42 162.41z"
       class="fa-primary"
       id="path4" />
  </g>
</svg>
